<svg xmlns="http://www.w3.org/2000/svg" viewBox="0 0 1828.27 1103.45" width="1828.27" height="1103.45" style="background-color: transparent;"><defs><style>@import url('https://fonts.googleapis.com/css2?family=Caveat+Brush&amp;family=Source+Code+Pro&amp;family=Source+Sans+Pro&amp;family=Crimson+Pro&amp;display=block');</style></defs><g id="e84a54b1-58c7-4bb6-2ce7-1e7da5dcadfa_svg" class="tl-centered-g" transform="translate(839.67, 21.21) rotate(0.00, 129.70, 52.50)"><path d="M171.19,104.90 Q158.82,104.80 151.05,104.75 T135.13,104.69 118.69,104.72 102.13,104.79 85.54,104.86 68.94,104.93 52.33,105.00 35.73,105.07 19.10,105.13 6.64,103.32 1.43,95.74 0.22,83.52 0.14,70.38 0.20,57.03 0.12,43.61 -0.03,30.17 -0.16,16.69 1.64,6.20 10.40,1.43 25.21,0.23 41.31,0.03 57.74,0.04 74.26,0.10 90.81,0.17 107.37,0.24 123.92,0.27 140.48,0.21 157.03,0.11 173.59,0.02 190.15,-0.08 206.70,-0.18 223.26,-0.28 239.84,-0.38 252.27,1.41 257.51,9.01 258.81,21.28 258.99,34.47 259.03,47.89 259.21,61.38 259.47,74.88 259.71,88.42 257.97,98.96 249.21,103.73 234.36,104.91 218.22,105.08 201.74,105.04 185.16,104.95 168.57,104.85 151.96,104.75 135.36,104.69 118.75,104.72 99.31,104.78 87.97,104.78 87.60,104.66 87.29,104.42 87.07,104.10 86.97,103.73 86.99,103.34 87.13,102.98 87.39,102.68 87.72,102.48 88.10,102.40 88.49,102.44 88.84,102.61 89.12,102.87 89.30,103.22 89.36,103.60 89.30,103.98 89.12,104.33 88.84,104.59 88.48,104.76 88.10,104.80 87.72,104.71 87.38,104.51 87.13,104.22 86.99,103.86 86.97,103.47 87.07,103.09 87.29,102.77 87.60,102.54 87.97,102.41 88.16,102.38 99.31,102.44 118.76,102.54 135.36,102.60 151.97,102.58 168.57,102.51 185.16,102.43 201.73,102.35 218.17,102.21 234.13,101.88 248.13,101.04 255.45,97.76 256.61,88.37 256.72,74.89 256.84,61.39 256.85,47.92 256.62,34.54 256.09,21.58 254.97,10.20 251.13,4.00 239.79,2.83 223.26,2.76 206.71,2.68 190.15,2.61 173.59,2.54 157.04,2.46 140.48,2.39 123.92,2.36 107.37,2.41 90.82,2.51 74.27,2.62 57.75,2.73 41.36,2.90 25.45,3.25 11.49,4.12 4.16,7.40 2.94,16.76 2.72,30.17 2.50,43.61 2.38,57.02 2.51,70.33 2.94,83.24 3.97,94.56 7.79,100.74 19.15,101.93 35.73,102.03 52.33,102.13 68.94,102.23 85.54,102.34 102.14,102.44 118.70,102.54 135.13,102.60 151.06,102.58 165.01,102.50 171.34,102.49 171.62,102.56 171.88,102.69 172.09,102.88 172.26,103.12 172.36,103.40 172.40,103.69 172.36,103.97 172.26,104.25 172.09,104.49 171.87,104.68 171.62,104.81 171.33,104.88 Z" fill="#cecece" stroke="#cecece" stroke-width="2" pointer-events="none"/></g><g text-align="center" text-anchor="middle" transform="translate(839.67, 81.04) rotate(0.00, 90.90, 24.10)"><g id="2dd5a0a1-ebe8-40f4-0a8b-2772cca365fc_svg" class="tl-centered-g"><path d="M90.52,48.29 Q77.75,48.41 69.74,48.46 T53.31,48.57 36.35,48.68 19.23,48.78 6.55,47.14 1.29,42.68 -0.06,37.10 -0.20,31.54 -0.17,26.10 -0.27,20.69 -0.44,15.28 -0.58,9.78 1.19,4.31 10.20,0.86 25.56,-0.01 42.23,-0.15 59.28,-0.16 76.43,-0.13 93.61,-0.23 110.80,-0.45 127.98,-0.67 145.17,-0.90 162.38,-1.11 175.12,0.47 180.38,4.98 181.66,10.69 181.73,16.40 181.62,22.00 181.64,27.58 181.74,33.16 181.81,38.81 179.99,44.38 170.98,47.81 155.66,48.59 139.04,48.62 122.04,48.51 104.94,48.37 87.81,48.35 67.75,48.46 56.05,48.48 55.67,48.35 55.35,48.10 55.12,47.77 55.01,47.38 55.04,46.98 55.18,46.61 55.45,46.30 55.79,46.09 56.18,46.01 56.58,46.05 56.95,46.22 57.24,46.50 57.43,46.85 57.49,47.25 57.43,47.65 57.24,48.00 56.95,48.28 56.58,48.45 56.18,48.49 55.79,48.40 55.44,48.20 55.18,47.89 55.03,47.52 55.01,47.11 55.12,46.73 55.35,46.39 55.67,46.15 56.05,46.02 56.25,45.99 67.75,46.07 87.82,46.22 104.94,46.24 122.04,46.12 139.02,45.97 155.52,45.69 169.95,45.10 177.48,43.01 178.74,38.61 179.00,33.12 179.27,27.55 179.43,22.00 179.36,16.50 179.00,11.28 178.08,6.68 174.16,3.33 162.35,2.05 145.19,2.01 128.00,1.98 110.81,1.94 93.62,1.90 76.45,2.00 59.30,2.23 42.27,2.50 25.72,2.89 11.25,3.57 3.71,5.66 2.48,9.95 2.30,15.28 2.11,20.69 2.01,26.08 2.16,31.41 2.59,36.47 3.56,40.93 7.51,44.26 19.28,45.62 36.35,45.77 53.31,45.92 69.75,46.07 84.14,46.22 90.64,46.31 90.87,46.37 91.09,46.48 91.27,46.64 91.40,46.83 91.49,47.06 91.51,47.30 91.48,47.53 91.40,47.76 91.26,47.95 91.08,48.11 90.87,48.22 90.64,48.28 Z" fill="#cecece" stroke="#cecece" stroke-width="2" pointer-events="none"/></g><text font-size="28px" font-family="Caveat Brush" font-weight="normal" line-height="28px" letter-spacing="-0.03em" text-align="center" dominant-baseline="mathematical" alignment-baseline="mathematical" text-anchor="middle" transform="translate(42.900000000000006, 5.10)" fill="#cecece" transform-origin="center center"><tspan y="14px" x="52">checksum
</tspan></text></g><g id="92d8527a-70c0-4a23-04c9-227defbbe4e4_svg" class="tl-centered-g" transform="translate(400.00, 308.17) rotate(0.00, 129.70, 52.50)"><path d="M-0.42,32.04 Q-0.54,21.82 -0.58,15.37 T1.25,5.26 10.05,0.61 24.91,-0.54 41.07,-0.68 57.56,-0.63 74.15,-0.53 90.77,-0.42 107.38,-0.31 124.00,-0.23 140.62,-0.25 157.25,-0.31 173.87,-0.36 190.49,-0.42 207.11,-0.48 223.73,-0.54 240.37,-0.59 252.84,1.23 258.06,8.83 259.30,21.08 259.41,34.25 259.38,47.65 259.48,61.11 259.66,74.58 259.82,88.10 258.04,98.62 249.25,103.42 234.35,104.68 218.17,104.95 201.63,105.01 185.01,105.02 168.36,105.03 151.71,105.02 135.05,105.06 118.39,105.19 101.74,105.36 85.08,105.53 68.43,105.70 51.77,105.87 35.12,106.04 18.44,106.21 5.94,104.45 0.73,96.78 -0.44,84.33 -0.47,70.93 -0.37,57.30 -0.39,43.60 -0.48,27.53 -0.48,18.08 -0.32,17.64 -0.04,17.27 0.35,17.01 0.80,16.89 1.27,16.92 1.70,17.09 2.06,17.40 2.29,17.80 2.39,18.26 2.34,18.72 2.14,19.15 1.82,19.48 1.40,19.70 0.94,19.77 0.48,19.69 0.07,19.47 -0.25,19.13 -0.45,18.70 -0.49,18.24 -0.39,17.78 -0.15,17.38 0.21,17.08 0.65,16.91 1.11,16.89 1.56,17.02 1.95,17.28 2.23,17.66 2.38,18.10 2.41,18.34 2.26,27.54 1.98,43.61 1.82,57.30 1.90,70.89 2.29,84.06 3.28,95.62 7.08,101.89 18.47,103.01 35.10,103.00 51.76,103.01 68.41,103.01 85.07,103.01 101.73,103.02 118.38,103.02 135.04,102.98 151.69,102.85 168.35,102.68 184.99,102.50 201.61,102.32 218.10,102.08 234.11,101.66 248.15,100.73 255.51,97.42 256.72,88.03 256.91,74.58 257.11,61.11 257.19,47.66 257.03,34.30 256.58,21.37 255.52,10.01 251.69,3.81 240.32,2.61 223.72,2.50 207.10,2.39 190.48,2.27 173.86,2.16 157.24,2.04 140.62,1.93 124.00,1.85 107.38,1.87 90.76,1.93 74.15,1.99 57.57,2.06 41.11,2.18 25.13,2.49 11.12,3.30 3.77,6.48 2.52,15.45 2.27,26.95 2.12,32.21 2.04,32.51 1.90,32.78 1.70,33.01 1.44,33.18 1.16,33.29 0.85,33.32 0.55,33.28 0.26,33.17 0.01,33.00 -0.19,32.77 -0.33,32.49 -0.40,32.20 Z" fill="#cecece" stroke="#cecece" stroke-width="2" pointer-events="none"/></g><g text-align="center" text-anchor="middle" transform="translate(397.92, 364.88) rotate(0.00, 90.90, 24.10)"><g id="3f31a2c3-a141-40b5-0d5e-6c4e5230a474_svg" class="tl-centered-g"><path d="M90.69,47.92 Q77.94,47.99 69.94,48.01 T53.52,48.06 36.59,48.10 19.49,48.14 6.83,46.47 1.54,42.06 0.10,36.58 -0.16,31.14 -0.24,25.82 -0.45,20.53 -0.74,15.24 -1.00,9.87 0.71,4.45 9.74,1.01 25.18,0.14 41.96,-0.00 59.12,-0.02 76.38,0.01 93.67,-0.10 110.97,-0.32 128.26,-0.55 145.56,-0.78 162.88,-1.00 175.70,0.58 180.94,5.09 182.16,10.79 182.16,16.48 181.98,22.05 181.92,27.61 181.95,33.17 181.95,38.80 180.07,44.35 171.06,47.74 155.75,48.46 139.16,48.43 122.18,48.26 105.10,48.06 87.99,47.97 67.95,48.00 56.26,47.97 55.88,47.84 55.56,47.60 55.34,47.26 55.23,46.88 55.26,46.47 55.41,46.10 55.67,45.80 56.01,45.59 56.41,45.51 56.81,45.55 57.17,45.72 57.46,46.00 57.65,46.36 57.71,46.75 57.65,47.15 57.46,47.51 57.16,47.78 56.80,47.95 56.40,47.99 56.00,47.90 55.66,47.69 55.40,47.38 55.25,47.01 55.23,46.61 55.34,46.22 55.57,45.89 55.89,45.65 56.27,45.52 56.48,45.49 67.96,45.61 88.00,45.84 105.11,45.93 122.18,45.87 139.14,45.78 155.62,45.56 170.04,45.02 177.57,42.96 178.88,38.56 179.21,33.09 179.55,27.55 179.79,22.02 179.79,16.54 179.50,11.34 178.63,6.77 174.73,3.43 162.85,2.16 145.58,2.13 128.28,2.10 110.98,2.07 93.68,2.03 76.40,2.14 59.14,2.37 42.00,2.65 25.35,3.04 10.78,3.72 3.22,5.79 2.06,9.99 2.00,15.19 1.92,20.47 1.94,25.75 2.20,30.95 2.72,35.90 3.79,40.26 7.78,43.56 19.56,44.98 36.60,45.19 53.54,45.41 69.95,45.62 84.33,45.82 90.82,45.94 91.06,45.99 91.27,46.11 91.45,46.27 91.58,46.46 91.66,46.69 91.69,46.93 91.66,47.16 91.58,47.39 91.44,47.58 91.26,47.74 91.05,47.85 90.81,47.91 Z" fill="#cecece" stroke="#cecece" stroke-width="2" pointer-events="none"/></g><text font-size="28px" font-family="Caveat Brush" font-weight="normal" line-height="28px" letter-spacing="-0.03em" text-align="center" dominant-baseline="mathematical" alignment-baseline="mathematical" text-anchor="middle" transform="translate(42.900000000000006, 5.10)" fill="#cecece" transform-origin="center center"><tspan y="14px" x="52">checksum
</tspan></text></g><g id="97dda491-68d5-4e20-06a5-05fcd0a874e6_svg" class="tl-centered-g" transform="translate(1282.75, 295.67) rotate(0.00, 129.70, 52.50)"><path d="M87.73,-0.17 Q100.12,-0.11 107.90,-0.08 T123.85,-0.07 140.31,-0.15 156.90,-0.28 173.52,-0.40 190.15,-0.52 206.78,-0.64 223.41,-0.77 240.07,-0.88 252.55,0.90 257.77,8.57 258.99,21.01 259.09,34.40 259.05,48.02 259.14,61.71 259.30,75.41 259.46,89.15 257.67,99.81 248.88,104.62 234.03,105.82 217.88,105.99 201.40,105.96 184.82,105.89 168.22,105.80 151.61,105.70 135.01,105.65 118.40,105.69 101.79,105.77 85.18,105.84 68.57,105.92 51.96,106.00 35.35,106.08 18.72,106.16 6.26,104.35 1.02,96.71 -0.24,84.35 -0.39,71.05 -0.40,57.52 -0.54,43.92 -0.75,30.31 -0.96,16.67 0.80,6.06 9.58,1.25 24.45,0.02 40.62,-0.20 57.13,-0.21 73.73,-0.18 90.36,-0.13 106.99,-0.08 123.62,-0.07 140.25,-0.15 159.73,-0.28 171.09,-0.32 171.45,-0.19 171.76,0.04 171.98,0.36 172.09,0.74 172.07,1.12 171.92,1.48 171.67,1.78 171.34,1.98 170.96,2.07 170.58,2.03 170.22,1.86 169.94,1.60 169.76,1.25 169.69,0.87 169.76,0.49 169.94,0.14 170.22,-0.12 170.57,-0.29 170.96,-0.33 171.34,-0.25 171.67,-0.05 171.92,0.25 172.07,0.61 172.09,1.00 171.99,1.37 171.77,1.69 171.46,1.93 171.09,2.05 170.90,2.08 159.73,2.07 140.26,2.02 123.62,2.01 106.99,2.09 90.36,2.22 73.74,2.34 57.15,2.48 40.68,2.67 24.69,3.05 10.67,3.94 3.33,7.26 2.14,16.72 1.99,30.31 1.84,43.92 1.79,57.50 1.98,70.99 2.48,84.05 3.56,95.52 7.40,101.77 18.77,102.95 35.35,103.04 51.96,103.14 68.57,103.23 85.18,103.32 101.79,103.42 118.40,103.51 135.01,103.57 151.61,103.53 168.22,103.45 184.82,103.37 201.39,103.27 217.84,103.12 233.80,102.79 247.80,101.93 255.14,98.61 256.36,89.08 256.56,75.41 256.77,61.70 256.86,48.03 256.72,34.45 256.27,21.29 255.22,9.74 251.40,3.47 240.03,2.32 223.42,2.27 206.79,2.22 190.15,2.17 173.52,2.12 156.90,2.07 140.31,2.02 123.85,2.01 107.90,2.09 93.93,2.21 87.59,2.25 87.31,2.18 87.05,2.04 86.83,1.85 86.66,1.61 86.56,1.34 86.52,1.05 86.56,0.76 86.66,0.49 86.83,0.25 87.04,0.05 87.30,-0.08 87.58,-0.15 Z" fill="#cecece" stroke="#cecece" stroke-width="2" pointer-events="none"/></g><g text-align="center" text-anchor="middle" transform="translate(1281.71, 351.34) rotate(0.00, 90.90, 24.10)"><g id="2cb5837f-7e59-45ff-02f6-da3bd86f6a7a_svg" class="tl-centered-g"><path d="M91.37,0.16 Q104.18,0.02 112.21,-0.05 T128.70,-0.18 145.72,-0.32 162.89,-0.45 175.61,1.19 180.87,5.67 182.18,11.31 182.29,16.94 182.23,22.45 182.28,27.94 182.42,33.43 182.53,38.99 180.73,44.51 171.72,47.93 156.38,48.74 139.73,48.80 122.71,48.72 105.58,48.61 88.42,48.62 71.26,48.76 54.10,48.90 36.93,49.04 19.75,49.17 7.03,47.54 1.76,43.06 0.41,37.42 0.26,31.79 0.29,26.27 0.19,20.78 0.01,15.29 -0.14,9.72 1.64,4.20 10.65,0.77 26.01,-0.03 42.69,-0.09 59.74,-0.01 76.90,0.10 94.08,0.09 114.21,-0.05 125.95,-0.08 126.33,0.05 126.66,0.29 126.88,0.62 126.99,1.01 126.97,1.41 126.82,1.79 126.56,2.09 126.21,2.30 125.82,2.39 125.42,2.34 125.06,2.17 124.76,1.90 124.57,1.54 124.51,1.15 124.57,0.75 124.76,0.39 125.05,0.12 125.42,-0.05 125.82,-0.10 126.21,-0.01 126.56,0.20 126.82,0.50 126.97,0.88 126.99,1.28 126.88,1.67 126.66,2.00 126.34,2.24 125.95,2.37 125.75,2.41 114.22,2.34 94.08,2.22 76.90,2.23 59.75,2.38 42.72,2.56 26.16,2.87 11.69,3.48 4.15,5.55 2.93,9.89 2.75,15.30 2.56,20.78 2.47,26.25 2.63,31.66 3.05,36.80 4.04,41.32 7.99,44.67 19.79,46.01 36.93,46.13 54.10,46.25 71.26,46.37 88.42,46.49 105.57,46.48 122.70,46.33 139.70,46.15 156.23,45.83 170.68,45.22 178.22,43.15 179.46,38.81 179.68,33.40 179.91,27.92 180.04,22.46 179.93,17.05 179.54,11.92 178.58,7.40 174.65,4.05 162.84,2.71 145.72,2.59 128.70,2.47 112.21,2.34 97.77,2.22 91.25,2.14 91.02,2.08 90.80,1.97 90.63,1.82 90.49,1.62 90.40,1.39 90.38,1.16 90.40,0.92 90.49,0.70 90.62,0.50 90.80,0.34 91.02,0.23 91.25,0.17 Z" fill="#cecece" stroke="#cecece" stroke-width="2" pointer-events="none"/></g><text font-size="28px" font-family="Caveat Brush" font-weight="normal" line-height="28px" letter-spacing="-0.03em" text-align="center" dominant-baseline="mathematical" alignment-baseline="mathematical" text-anchor="middle" transform="translate(42.900000000000006, 5.10)" fill="#cecece" transform-origin="center center"><tspan y="14px" x="52">checksum
</tspan></text></g><g id="d0ef456d-f4c7-45c7-1397-2bee4abc14a6_svg" class="tl-centered-g" transform="translate(16.00, 980.17) rotate(0.00, 129.70, 52.50)"><path d="M170.87,104.88 Q158.51,104.76 150.75,104.70 T134.84,104.62 118.42,104.63 101.87,104.68 85.29,104.72 68.70,104.77 52.10,104.82 35.51,104.87 18.89,104.91 6.45,103.09 1.21,95.47 -0.07,83.16 -0.23,69.93 -0.25,56.47 -0.40,42.95 -0.63,29.41 -0.85,15.83 0.91,5.27 9.70,0.52 24.60,-0.61 40.79,-0.71 57.33,-0.60 73.96,-0.45 90.62,-0.28 107.28,-0.11 123.94,0.02 140.61,0.06 157.27,0.06 173.93,0.06 190.60,0.06 207.26,0.06 223.92,0.05 240.61,0.06 253.11,1.92 258.30,9.51 259.45,21.74 259.46,34.87 259.33,48.23 259.33,61.66 259.41,75.10 259.48,88.58 257.64,99.07 248.84,103.81 234.00,104.97 217.87,105.12 201.40,105.06 184.84,104.95 168.25,104.83 151.66,104.70 135.07,104.62 118.48,104.63 99.04,104.67 87.71,104.65 87.34,104.53 87.04,104.29 86.82,103.97 86.72,103.60 86.74,103.21 86.88,102.85 87.13,102.55 87.47,102.35 87.85,102.27 88.23,102.31 88.59,102.48 88.87,102.75 89.05,103.09 89.11,103.47 89.05,103.86 88.86,104.20 88.58,104.47 88.23,104.63 87.84,104.67 87.46,104.58 87.13,104.38 86.88,104.09 86.74,103.72 86.72,103.34 86.82,102.96 87.04,102.64 87.35,102.41 87.72,102.28 87.91,102.25 99.05,102.32 118.48,102.45 135.07,102.54 151.67,102.53 168.26,102.48 184.84,102.43 201.39,102.37 217.83,102.25 233.77,101.95 247.77,101.12 255.11,97.85 256.38,88.49 256.67,75.08 256.96,61.64 257.15,48.23 257.09,34.91 256.72,22.01 255.75,10.68 251.95,4.49 240.55,3.26 223.91,3.09 207.25,2.92 190.58,2.75 173.92,2.58 157.26,2.41 140.59,2.23 123.93,2.10 107.27,2.06 90.61,2.06 73.95,2.07 57.33,2.09 40.83,2.16 24.81,2.42 10.76,3.21 3.42,6.47 2.25,15.89 2.11,29.40 1.97,42.94 1.94,56.45 2.14,69.87 2.65,82.87 3.75,94.28 7.59,100.50 18.95,101.71 35.52,101.83 52.11,101.95 68.70,102.08 85.29,102.20 101.87,102.33 118.42,102.45 134.84,102.54 150.76,102.53 164.70,102.48 171.02,102.46 171.31,102.54 171.56,102.67 171.78,102.86 171.95,103.10 172.05,103.38 172.08,103.67 172.05,103.96 171.94,104.23 171.78,104.47 171.56,104.66 171.30,104.79 171.02,104.86 Z" fill="#cecece" stroke="#cecece" stroke-width="2" pointer-events="none"/></g><g text-align="center" text-anchor="middle" transform="translate(16.00, 1037.17) rotate(0.00, 90.90, 24.10)"><g id="249773f6-7863-4e2d-1066-d2075ef3e1c8_svg" class="tl-centered-g"><path d="M90.95,47.91 Q78.20,48.10 70.20,48.21 T53.78,48.41 36.85,48.62 19.75,48.83 7.08,47.25 1.79,42.77 0.40,37.10 0.20,31.44 0.17,25.89 0.01,20.36 -0.22,14.84 -0.42,9.23 1.32,3.67 10.33,0.26 25.69,-0.49 42.37,-0.48 59.43,-0.33 76.59,-0.14 93.78,-0.08 110.97,-0.15 128.17,-0.22 145.37,-0.28 162.59,-0.34 175.32,1.33 180.58,5.76 181.87,11.27 181.96,16.74 181.87,22.09 181.91,27.41 182.03,32.74 182.11,38.13 180.30,43.55 171.31,46.97 156.01,47.82 139.41,47.95 122.43,47.95 105.35,47.91 88.25,47.99 68.20,48.22 56.52,48.30 56.14,48.18 55.81,47.94 55.59,47.60 55.48,47.22 55.50,46.81 55.64,46.44 55.90,46.13 56.25,45.92 56.64,45.83 57.04,45.88 57.41,46.04 57.70,46.32 57.89,46.67 57.96,47.07 57.89,47.47 57.71,47.82 57.42,48.10 57.05,48.27 56.65,48.32 56.26,48.23 55.91,48.03 55.65,47.72 55.50,47.35 55.48,46.95 55.58,46.56 55.81,46.22 56.13,45.98 56.51,45.85 56.71,45.82 68.19,45.83 88.24,45.86 105.34,45.78 122.41,45.56 139.37,45.30 155.85,44.92 170.26,44.26 177.78,42.17 179.05,37.93 179.28,32.70 179.54,27.39 179.69,22.09 179.60,16.85 179.23,11.88 178.30,7.50 174.36,4.21 162.53,2.82 145.36,2.63 128.16,2.43 110.97,2.24 93.77,2.05 76.58,1.99 59.43,2.06 42.39,2.17 25.83,2.42 11.35,2.97 3.82,5.02 2.64,9.37 2.52,14.81 2.39,20.33 2.35,25.84 2.56,31.28 3.04,36.46 4.07,41.02 8.02,44.37 19.78,45.67 36.83,45.71 53.77,45.76 70.19,45.82 84.56,45.88 91.06,45.93 91.29,45.99 91.50,46.10 91.68,46.25 91.82,46.45 91.91,46.67 91.94,46.91 91.91,47.15 91.82,47.37 91.69,47.57 91.51,47.73 91.30,47.84 91.07,47.90 Z" fill="#cecece" stroke="#cecece" stroke-width="2" pointer-events="none"/></g><text font-size="28px" font-family="Caveat Brush" font-weight="normal" line-height="28px" letter-spacing="-0.03em" text-align="center" dominant-baseline="mathematical" alignment-baseline="mathematical" text-anchor="middle" transform="translate(42.900000000000006, 5.10)" fill="#cecece" transform-origin="center center"><tspan y="14px" x="52">checksum
</tspan></text></g><g id="3e92dd5f-dcc8-43eb-32e7-5a6f65f1a41f_svg" class="tl-centered-g" transform="translate(707.85, 980.66) rotate(0.00, 129.70, 52.50)"><path d="M171.26,104.78 Q158.85,104.69 151.07,104.64 T135.10,104.59 118.62,104.63 102.01,104.71 85.37,104.79 68.72,104.87 52.07,104.94 35.42,105.02 18.75,105.10 6.26,103.29 1.06,95.68 -0.09,83.42 -0.10,70.24 0.02,56.82 0.02,43.35 -0.07,29.85 -0.14,16.32 1.70,5.80 10.48,1.03 25.29,-0.17 41.38,-0.36 57.81,-0.35 74.33,-0.29 90.87,-0.21 107.42,-0.13 123.97,-0.10 140.52,-0.15 157.07,-0.24 173.63,-0.33 190.18,-0.43 206.73,-0.52 223.28,-0.62 239.86,-0.70 252.28,1.09 257.53,8.69 258.87,20.98 259.09,34.20 259.17,47.64 259.39,61.15 259.69,74.67 259.97,88.23 258.26,98.79 249.48,103.57 234.60,104.76 218.42,104.93 201.89,104.90 185.27,104.83 168.63,104.74 151.98,104.64 135.33,104.59 118.68,104.63 99.18,104.71 87.81,104.71 87.44,104.59 87.13,104.35 86.91,104.03 86.81,103.66 86.83,103.27 86.97,102.91 87.23,102.61 87.56,102.41 87.94,102.33 88.32,102.37 88.68,102.53 88.96,102.80 89.14,103.15 89.20,103.53 89.14,103.91 88.96,104.26 88.68,104.52 88.32,104.69 87.94,104.73 87.56,104.64 87.22,104.44 86.97,104.15 86.83,103.79 86.81,103.40 86.91,103.02 87.13,102.70 87.44,102.47 87.81,102.34 88.00,102.31 99.18,102.36 118.68,102.46 135.33,102.51 151.98,102.47 168.63,102.39 185.27,102.31 201.88,102.21 218.37,102.07 234.37,101.73 248.41,100.88 255.74,97.59 256.87,88.19 256.94,74.69 257.02,61.17 256.99,47.67 256.72,34.27 256.15,21.29 255.00,9.89 251.14,3.68 239.81,2.50 223.28,2.42 206.73,2.34 190.18,2.27 173.63,2.19 157.08,2.11 140.52,2.03 123.97,1.99 107.42,2.04 90.87,2.14 74.33,2.23 57.82,2.35 41.43,2.51 25.52,2.86 11.56,3.72 4.23,7.01 2.96,16.41 2.68,29.88 2.39,43.36 2.21,56.83 2.27,70.20 2.64,83.15 3.61,94.52 7.41,100.72 18.80,101.89 35.42,101.98 52.07,102.08 68.72,102.17 85.37,102.27 102.01,102.36 118.62,102.46 135.10,102.51 151.07,102.47 165.06,102.39 171.40,102.37 171.69,102.44 171.94,102.57 172.16,102.77 172.33,103.01 172.43,103.28 172.46,103.57 172.43,103.86 172.33,104.13 172.16,104.37 171.94,104.56 171.68,104.70 171.40,104.77 Z" fill="#cecece" stroke="#cecece" stroke-width="2" pointer-events="none"/></g><g text-align="center" text-anchor="middle" transform="translate(710.25, 1035.06) rotate(0.00, 90.90, 24.10)"><g id="fa7056d0-61ea-410b-2a41-9829ccc56b66_svg" class="tl-centered-g"><path d="M91.00,48.18 Q78.11,48.22 70.02,48.22 T53.42,48.24 36.29,48.25 19.01,48.25 6.22,46.53 0.97,42.07 -0.29,36.52 -0.33,31.00 -0.19,25.60 -0.18,20.23 -0.25,14.86 -0.29,9.41 1.56,3.97 10.56,0.58 25.86,-0.20 42.45,-0.24 59.43,-0.14 76.50,-0.01 93.60,-0.00 110.71,-0.12 127.82,-0.24 144.93,-0.36 162.06,-0.47 174.73,1.16 180.05,5.64 181.55,11.31 181.86,16.97 182.00,22.53 182.27,28.05 182.62,33.57 182.93,39.18 181.26,44.76 172.22,48.16 156.78,48.85 140.00,48.79 122.83,48.58 105.56,48.34 88.27,48.22 68.00,48.21 56.19,48.16 55.81,48.03 55.49,47.78 55.26,47.45 55.16,47.06 55.18,46.66 55.34,46.28 55.60,45.98 55.94,45.77 56.34,45.69 56.74,45.74 57.10,45.91 57.39,46.19 57.58,46.54 57.64,46.94 57.57,47.34 57.38,47.69 57.09,47.97 56.72,48.13 56.32,48.17 55.93,48.08 55.58,47.87 55.33,47.57 55.18,47.19 55.16,46.79 55.27,46.40 55.50,46.07 55.82,45.83 56.20,45.70 56.41,45.67 68.02,45.82 88.28,46.09 105.58,46.21 122.84,46.19 139.99,46.14 156.65,45.95 171.22,45.44 178.76,43.43 179.87,39.09 179.87,33.65 179.90,28.13 179.82,22.62 179.50,17.18 178.92,12.00 177.80,7.44 173.79,4.06 162.01,2.69 144.92,2.55 127.82,2.41 110.71,2.27 93.60,2.13 76.50,2.12 59.43,2.25 42.48,2.41 26.00,2.71 11.59,3.30 4.07,5.36 2.78,9.63 2.49,14.92 2.19,20.28 1.99,25.62 2.04,30.91 2.36,35.93 3.26,40.35 7.19,43.67 19.07,45.09 36.31,45.34 53.43,45.59 70.03,45.83 84.57,46.07 91.13,46.19 91.37,46.25 91.58,46.36 91.75,46.52 91.89,46.72 91.97,46.95 92.00,47.18 91.97,47.42 91.88,47.64 91.75,47.84 91.57,48.00 91.35,48.11 91.12,48.16 Z" fill="#cecece" stroke="#cecece" stroke-width="2" pointer-events="none"/></g><text font-size="28px" font-family="Caveat Brush" font-weight="normal" line-height="28px" letter-spacing="-0.03em" text-align="center" dominant-baseline="mathematical" alignment-baseline="mathematical" text-anchor="middle" transform="translate(42.900000000000006, 5.10)" fill="#cecece" transform-origin="center center"><tspan y="14px" x="52">checksum
</tspan></text></g><g id="74b3af3a-e1f1-4ae0-217e-1d065a42930e_svg" class="tl-centered-g" transform="translate(1036.80, 973.37) rotate(0.00, 129.70, 52.50)"><path d="M259.58,72.51 Q259.72,82.52 259.78,88.83 T257.97,98.76 249.18,103.40 234.32,104.61 218.18,104.85 201.70,104.89 185.12,104.88 168.52,104.86 151.91,104.84 135.31,104.86 118.70,104.96 102.09,105.11 85.48,105.26 68.88,105.41 52.27,105.56 35.66,105.71 19.03,105.86 6.57,104.10 1.32,96.46 0.01,84.08 -0.17,70.77 -0.22,57.22 -0.39,43.60 -0.65,29.97 -0.89,16.31 0.85,5.68 9.64,0.90 24.53,-0.28 40.74,-0.42 57.28,-0.37 73.91,-0.27 90.57,-0.15 107.24,-0.03 123.91,0.05 140.57,0.04 157.24,-0.02 173.91,-0.07 190.58,-0.12 207.25,-0.17 223.91,-0.23 240.61,-0.27 253.10,1.55 258.31,9.13 259.51,21.34 259.57,34.46 259.49,47.80 259.54,61.21 259.65,76.93 259.67,86.17 259.52,86.62 259.23,86.99 258.84,87.25 258.39,87.37 257.93,87.34 257.49,87.17 257.14,86.86 256.90,86.46 256.80,86.01 256.85,85.54 257.05,85.12 257.37,84.78 257.79,84.56 258.25,84.49 258.71,84.57 259.12,84.79 259.44,85.13 259.64,85.55 259.68,86.02 259.58,86.48 259.34,86.87 258.98,87.18 258.55,87.35 258.08,87.37 257.63,87.24 257.24,86.98 256.96,86.60 256.82,86.16 256.78,85.93 256.91,76.92 257.17,61.20 257.30,47.80 257.20,34.50 256.79,21.62 255.77,10.30 251.95,4.13 240.55,2.93 223.91,2.81 207.24,2.69 190.57,2.57 173.91,2.45 157.24,2.33 140.57,2.21 123.90,2.13 107.24,2.14 90.57,2.20 73.91,2.25 57.28,2.32 40.78,2.44 24.76,2.75 10.71,3.59 3.36,6.88 2.21,16.35 2.09,29.96 1.98,43.59 1.97,57.19 2.20,70.70 2.73,83.78 3.85,95.27 7.70,101.51 19.07,102.65 35.65,102.67 52.26,102.70 68.87,102.72 85.47,102.74 102.08,102.77 118.69,102.79 135.30,102.77 151.91,102.66 168.51,102.51 185.11,102.36 201.68,102.19 218.13,101.98 234.09,101.59 248.09,100.71 255.44,97.55 256.68,88.75 256.91,77.50 257.05,72.35 257.12,72.05 257.26,71.78 257.47,71.55 257.72,71.38 258.01,71.27 258.31,71.24 258.61,71.27 258.90,71.38 259.15,71.56 259.35,71.79 259.49,72.06 259.57,72.36 Z" fill="#cecece" stroke="#cecece" stroke-width="2" pointer-events="none"/></g><g text-align="center" text-anchor="middle" transform="translate(1039.20, 1027.77) rotate(0.00, 90.90, 24.10)"><g id="8e30ee48-523a-4642-0d8e-1a1ac57cefc7_svg" class="tl-centered-g"><path d="M90.61,47.92 Q77.81,47.99 69.78,48.01 T53.30,48.05 36.30,48.09 19.15,48.13 6.44,46.44 1.15,41.97 -0.26,36.37 -0.48,30.79 -0.52,25.32 -0.69,19.88 -0.93,14.44 -1.15,8.93 0.59,3.42 9.59,0.04 24.93,-0.64 41.59,-0.57 58.63,-0.35 75.77,-0.10 92.94,0.03 110.12,0.03 127.30,0.03 144.48,0.03 161.68,0.03 174.39,1.74 179.68,6.19 181.09,11.75 181.31,17.28 181.36,22.69 181.53,28.08 181.77,33.45 181.99,38.92 180.26,44.39 171.25,47.77 155.91,48.48 139.25,48.45 122.21,48.27 105.07,48.06 87.90,47.97 67.78,48.00 56.05,47.97 55.67,47.84 55.35,47.59 55.13,47.26 55.02,46.87 55.05,46.47 55.20,46.09 55.46,45.79 55.81,45.58 56.20,45.50 56.60,45.55 56.96,45.72 57.25,45.99 57.44,46.35 57.50,46.75 57.44,47.14 57.25,47.50 56.95,47.77 56.59,47.94 56.19,47.98 55.79,47.89 55.45,47.68 55.19,47.38 55.04,47.00 55.03,46.60 55.14,46.21 55.36,45.88 55.68,45.64 56.07,45.51 56.27,45.48 67.80,45.61 87.91,45.84 105.08,45.93 122.22,45.88 139.24,45.80 155.78,45.58 170.24,45.05 177.76,43.04 178.93,38.78 179.03,33.49 179.16,28.11 179.17,22.75 178.95,17.45 178.46,12.41 177.42,7.97 173.43,4.63 161.61,3.19 144.45,2.94 127.28,2.68 110.10,2.42 92.93,2.16 75.76,2.03 58.62,2.04 41.60,2.08 25.06,2.27 10.60,2.76 3.08,4.77 1.91,9.06 1.81,14.41 1.68,19.85 1.67,25.27 1.89,30.62 2.38,35.71 3.42,40.20 7.40,43.55 19.21,44.96 36.32,45.18 53.32,45.40 69.80,45.62 84.22,45.82 90.74,45.94 90.97,46.00 91.19,46.11 91.36,46.27 91.50,46.47 91.58,46.69 91.61,46.93 91.58,47.17 91.49,47.39 91.36,47.59 91.18,47.74 90.96,47.85 90.73,47.91 Z" fill="#cecece" stroke="#cecece" stroke-width="2" pointer-events="none"/></g><text font-size="28px" font-family="Caveat Brush" font-weight="normal" line-height="28px" letter-spacing="-0.03em" text-align="center" dominant-baseline="mathematical" alignment-baseline="mathematical" text-anchor="middle" transform="translate(42.900000000000006, 5.10)" fill="#cecece" transform-origin="center center"><tspan y="14px" x="52">checksum
</tspan></text></g><g id="6743f6f7-026a-469a-2b1a-9830250f5695_svg" class="tl-centered-g" transform="translate(1552.87, 973.05) rotate(0.00, 129.70, 52.50)"><path d="M259.28,73.36 Q259.45,83.48 259.52,89.87 T257.73,99.90 248.95,104.55 234.12,105.72 218.00,105.90 201.54,105.88 184.98,105.82 168.41,105.74 151.82,105.66 135.24,105.62 118.65,105.67 102.07,105.77 85.48,105.86 68.90,105.95 52.31,106.05 35.73,106.14 19.12,106.23 6.67,104.42 1.48,96.73 0.30,84.27 0.26,70.86 0.36,57.21 0.33,43.49 0.22,29.76 0.12,15.99 1.95,5.31 10.73,0.53 25.54,-0.62 41.64,-0.75 58.08,-0.67 74.60,-0.53 91.15,-0.39 107.71,-0.24 124.27,-0.14 140.83,-0.12 157.39,-0.14 173.95,-0.16 190.50,-0.19 207.06,-0.21 223.62,-0.24 240.21,-0.26 252.63,1.59 257.84,9.23 259.06,21.57 259.15,34.85 259.11,48.35 259.20,61.92 259.36,77.83 259.40,87.18 259.25,87.62 258.97,88.00 258.58,88.26 258.13,88.38 257.66,88.36 257.23,88.18 256.87,87.88 256.63,87.48 256.53,87.02 256.58,86.56 256.78,86.13 257.10,85.79 257.52,85.58 257.98,85.50 258.44,85.58 258.85,85.80 259.17,86.14 259.37,86.56 259.42,87.03 259.32,87.48 259.07,87.88 258.72,88.19 258.28,88.36 257.82,88.38 257.37,88.26 256.98,87.99 256.70,87.62 256.55,87.18 256.51,86.94 256.62,77.82 256.83,61.92 256.93,48.36 256.78,34.90 256.34,21.86 255.29,10.41 251.48,4.16 240.15,2.95 223.61,2.80 207.05,2.65 190.49,2.51 173.94,2.36 157.38,2.21 140.82,2.06 124.26,1.95 107.70,1.93 91.15,1.96 74.60,1.99 58.08,2.03 41.68,2.12 25.77,2.40 11.80,3.22 4.47,6.53 3.22,16.07 2.96,29.78 2.70,43.50 2.55,57.21 2.64,70.81 3.03,84.00 4.03,95.57 7.82,101.86 19.17,103.02 35.73,103.10 52.31,103.18 68.90,103.26 85.48,103.34 102.07,103.42 118.65,103.50 135.24,103.54 151.82,103.49 168.40,103.39 184.98,103.30 201.52,103.19 217.95,103.03 233.89,102.69 247.87,101.86 255.20,98.69 256.42,89.80 256.62,78.41 256.74,73.20 256.81,72.90 256.96,72.63 257.16,72.40 257.41,72.23 257.70,72.12 258.00,72.09 258.31,72.12 258.59,72.23 258.84,72.41 259.05,72.64 259.19,72.91 259.26,73.20 Z" fill="#cecece" stroke="#cecece" stroke-width="2" pointer-events="none"/></g><g text-align="center" text-anchor="middle" transform="translate(1555.27, 1027.45) rotate(0.00, 90.90, 24.10)"><g id="510e9afa-cdde-4e5b-2f2d-60ccdc961277_svg" class="tl-centered-g"><path d="M-0.07,15.70 Q-0.25,11.54 -0.32,8.85 T1.46,3.48 10.47,0.11 25.84,-0.66 42.51,-0.69 59.57,-0.59 76.73,-0.45 93.92,-0.43 111.11,-0.55 128.31,-0.66 145.50,-0.77 162.72,-0.88 175.46,0.77 180.73,5.25 182.07,10.90 182.20,16.53 182.16,22.04 182.24,27.53 182.41,33.02 182.54,38.58 180.76,44.11 171.75,47.55 156.39,48.39 139.73,48.49 122.69,48.45 105.54,48.39 88.37,48.44 71.19,48.62 54.01,48.80 36.83,48.98 19.62,49.15 6.89,47.55 1.61,43.04 0.26,37.32 0.10,31.60 0.13,25.99 0.02,20.40 -0.16,13.86 -0.21,9.88 -0.06,9.44 0.22,9.07 0.61,8.81 1.06,8.68 1.53,8.71 1.96,8.88 2.32,9.18 2.56,9.58 2.66,10.04 2.61,10.51 2.41,10.93 2.09,11.27 1.67,11.49 1.21,11.56 0.75,11.49 0.34,11.27 0.02,10.93 -0.18,10.50 -0.23,10.04 -0.13,9.58 0.11,9.18 0.47,8.88 0.90,8.71 1.37,8.68 1.82,8.81 2.21,9.07 2.49,9.44 2.64,9.89 2.68,10.12 2.58,13.86 2.39,20.40 2.31,25.96 2.47,31.47 2.90,36.70 3.90,41.31 7.85,44.68 19.66,45.99 36.82,46.07 54.00,46.15 71.18,46.23 88.36,46.31 105.53,46.26 122.67,46.06 139.69,45.84 156.24,45.49 170.71,44.84 178.24,42.75 179.47,38.41 179.66,33.01 179.87,27.53 179.97,22.06 179.83,16.65 179.42,11.51 178.45,6.99 174.50,3.64 162.67,2.28 145.50,2.14 128.31,1.99 111.11,1.84 93.92,1.70 76.73,1.68 59.57,1.80 42.54,1.96 25.98,2.25 11.50,2.82 3.96,4.85 2.75,9.02 2.58,13.62 2.47,15.85 2.39,16.15 2.25,16.42 2.05,16.65 1.79,16.82 1.51,16.93 1.20,16.97 0.90,16.93 0.61,16.82 0.36,16.65 0.16,16.42 0.02,16.15 -0.05,15.85 Z" fill="#cecece" stroke="#cecece" stroke-width="2" pointer-events="none"/></g><text font-size="28px" font-family="Caveat Brush" font-weight="normal" line-height="28px" letter-spacing="-0.03em" text-align="center" dominant-baseline="mathematical" alignment-baseline="mathematical" text-anchor="middle" transform="translate(42.900000000000006, 5.10)" fill="#cecece" transform-origin="center center"><tspan y="14px" x="52">checksum
</tspan></text></g><g id="16cec45a-3357-4338-24d1-399939a778fb_svg" class="tl-centered-g" transform="translate(675.40, 126.21) rotate(0.00, 113.39, 88.58)"><defs><mask id="16cec45a-3357-4338-24d1-399939a778fb_clip"><rect x="-100" y="-100" width="426.77" height="377.15" fill="white"/><rect x="113.38" y="88.57" width="0" height="0" rx="4" ry="4" fill="black" opacity="1"/></mask></defs><g pointer-events="none" opacity="1" mask=""><path d="M227.32,0.71 Q170.98,44.63 142.81,66.59 T86.48,110.53 30.16,154.48 1.90,176.52 1.69,176.59 1.47,176.59 1.27,176.52 1.09,176.39 0.96,176.21 0.90,176.00 0.91,175.78 0.99,175.58 1.13,175.41 1.32,175.29 1.53,175.24 1.75,175.26 1.95,175.35 2.11,175.50 2.22,175.69 2.26,175.91 2.22,176.13 2.12,176.32 1.97,176.48 1.77,176.57 1.55,176.60 1.33,176.55 1.14,176.44 1.00,176.28 0.91,176.07 0.90,175.85 0.96,175.64 1.08,175.46 1.15,175.38 29.29,153.37 85.57,109.36 141.83,65.35 198.09,21.31 226.31,-0.76 226.51,-0.85 226.72,-0.89 226.93,-0.88 227.14,-0.81 227.32,-0.70 227.47,-0.55 227.58,-0.36 227.65,-0.16 227.66,0.06 227.62,0.27 227.53,0.46 227.40,0.63 Z" fill="#cecece" stroke="#cecece" stroke-width="2.11" stroke-dasharray="none" stroke-dashoffset="none" stroke-linecap="round" stroke-linejoin="round" pointer-events="stroke"/><g><path d="M 15.84,174.92419107040837 L 0,177.15 5.99,162.3154217686146" fill="none" stroke="#cecece" stroke-width="4.23" stroke-linecap="round" stroke-linejoin="round" pointer-events="none"/></g></g></g><g id="f0c52c8f-6cdb-47f4-0c6a-80abcf8dc86e_svg" class="tl-centered-g" transform="translate(1054.12, 126.21) rotate(0.00, 123.88, 76.73)"><defs><mask id="f0c52c8f-6cdb-47f4-0c6a-80abcf8dc86e_clip"><rect x="-100" y="-100" width="447.75" height="353.46" fill="white"/><rect x="123.87" y="76.73" width="0" height="0" rx="4" ry="4" fill="black" opacity="1"/></mask></defs><g pointer-events="none" opacity="1" mask=""><path d="M0.51,-0.82 Q61.99,37.33 92.73,56.41 T154.22,94.54 215.72,132.67 246.56,151.82 246.72,152.01 246.81,152.25 246.82,152.50 246.75,152.74 246.61,152.95 246.41,153.10 246.17,153.18 245.91,153.17 245.68,153.09 245.48,152.94 245.34,152.72 245.27,152.48 245.29,152.23 245.39,152.00 245.55,151.81 245.77,151.68 246.02,151.63 246.27,151.66 246.50,151.77 246.68,151.94 246.79,152.17 246.83,152.42 246.78,152.67 246.66,152.89 246.48,153.06 246.25,153.16 246.00,153.18 245.75,153.13 245.63,153.08 214.87,134.04 153.34,95.96 91.81,57.90 30.26,19.85 -0.60,0.75 -0.76,0.59 -0.88,0.39 -0.95,0.16 -0.96,-0.07 -0.92,-0.30 -0.82,-0.51 -0.67,-0.69 -0.49,-0.83 -0.28,-0.92 -0.05,-0.96 0.18,-0.95 0.40,-0.87 Z" fill="#cecece" stroke="#cecece" stroke-width="2.11" stroke-dasharray="none" stroke-dashoffset="none" stroke-linecap="round" stroke-linejoin="round" pointer-events="stroke"/><g><path d="M 240.18,139.3624868465731 L 247.75,153.46 231.75,152.96449392717682" fill="none" stroke="#cecece" stroke-width="4.23" stroke-linecap="round" stroke-linejoin="round" pointer-events="none"/></g></g></g><g id="ea5fa1d2-3236-4351-050a-fd188a1990b9_svg" class="tl-centered-g" transform="translate(214.14, 413.17) rotate(0.00, 125.43, 275.50)"><defs><mask id="ea5fa1d2-3236-4351-050a-fd188a1990b9_clip"><rect x="-100" y="-100" width="450.86" height="751" fill="white"/><rect x="125.43" y="275.5" width="0" height="0" rx="4" ry="4" fill="black" opacity="1"/></mask></defs><g pointer-events="none" opacity="1" mask=""><path d="M251.64,0.35 Q189.05,137.61 157.77,206.25 T95.22,343.52 32.67,480.80 1.35,549.53 1.21,549.67 1.03,549.77 0.83,549.80 0.63,549.77 0.46,549.68 0.32,549.53 0.23,549.35 0.21,549.15 0.25,548.95 0.35,548.78 0.50,548.65 0.69,548.57 0.89,548.56 1.09,548.61 1.25,548.73 1.38,548.89 1.44,549.08 1.44,549.28 1.38,549.47 1.26,549.63 1.09,549.74 0.90,549.80 0.70,549.79 0.51,549.71 0.36,549.59 0.25,549.41 0.21,549.22 0.23,549.02 0.26,548.92 31.49,480.26 93.97,342.95 156.42,205.64 218.87,68.31 250.14,-0.44 250.26,-0.60 250.42,-0.73 250.61,-0.81 250.81,-0.85 251.02,-0.83 251.21,-0.77 251.39,-0.67 251.53,-0.52 251.64,-0.35 251.70,-0.15 251.71,0.06 251.67,0.26 Z" fill="#cecece" stroke="#cecece" stroke-width="2.11" stroke-dasharray="none" stroke-dashoffset="none" stroke-linecap="round" stroke-linejoin="round" pointer-events="stroke"/><g><path d="M 13.02,541.7039534107402 L 0,551 -1.5394006743304791,535.0742270026265" fill="none" stroke="#cecece" stroke-width="4.23" stroke-linecap="round" stroke-linejoin="round" pointer-events="none"/></g></g></g><g id="df8097d1-3b33-4d4e-2ef5-d5a26c9dd19f_svg" class="tl-centered-g" transform="translate(550.84, 413.17) rotate(0.00, 111.05, 275.75)"><defs><mask id="df8097d1-3b33-4d4e-2ef5-d5a26c9dd19f_clip"><rect x="-100" y="-100" width="422.1" height="751.49" fill="white"/><rect x="111.05" y="275.74" width="0" height="0" rx="4" ry="4" fill="black" opacity="1"/></mask></defs><g pointer-events="none" opacity="1" mask=""><path d="M0.94,-0.38 Q56.23,137.05 83.88,205.76 T139.18,343.19 194.49,480.61 222.18,549.45 222.19,549.72 222.12,549.99 221.97,550.21 221.75,550.38 221.49,550.47 221.22,550.47 220.96,550.38 220.74,550.22 220.59,549.99 220.51,549.73 220.53,549.46 220.63,549.20 220.80,548.99 221.04,548.85 221.30,548.79 221.58,548.82 221.82,548.93 222.02,549.12 222.15,549.36 222.20,549.63 222.15,549.90 222.03,550.14 221.83,550.33 221.58,550.45 221.31,550.48 221.04,550.42 220.81,550.28 220.63,550.07 220.56,549.95 192.88,481.25 137.51,343.86 82.14,206.46 26.75,69.07 -0.98,0.26 -1.01,0.02 -0.99,-0.22 -0.90,-0.45 -0.77,-0.65 -0.59,-0.82 -0.38,-0.94 -0.14,-1.00 0.10,-1.01 0.34,-0.95 0.56,-0.84 0.74,-0.69 0.89,-0.49 Z" fill="#cecece" stroke="#cecece" stroke-width="2.11" stroke-dasharray="none" stroke-dashoffset="none" stroke-linecap="round" stroke-linejoin="round" pointer-events="stroke"/><g><path d="M 224.34,535.6482087000502 L 222.1,551.49 209.50,541.6253357664158" fill="none" stroke="#cecece" stroke-width="4.23" stroke-linecap="round" stroke-linejoin="round" pointer-events="none"/></g></g></g><g id="514ae972-48f8-48a2-3772-9b449f3fbea1_svg" class="tl-centered-g" transform="translate(1433.39, 400.67) rotate(0.00, 110.93, 278.19)"><defs><mask id="514ae972-48f8-48a2-3772-9b449f3fbea1_clip"><rect x="-100" y="-100" width="421.86" height="756.38" fill="white"/><rect x="110.93" y="278.19" width="0" height="0" rx="4" ry="4" fill="black" opacity="1"/></mask></defs><g pointer-events="none" opacity="1" mask=""><path d="M0.90,-0.36 Q56.12,138.30 83.73,207.62 T138.97,346.27 194.22,484.91 221.88,554.36 221.89,554.61 221.82,554.85 221.68,555.06 221.48,555.21 221.25,555.29 220.99,555.29 220.76,555.21 220.56,555.06 220.41,554.85 220.35,554.61 220.36,554.36 220.45,554.12 220.62,553.93 220.83,553.80 221.08,553.75 221.33,553.77 221.56,553.88 221.74,554.05 221.86,554.27 221.90,554.52 221.86,554.77 221.74,554.99 221.56,555.17 221.33,555.27 221.08,555.30 220.83,555.24 220.62,555.11 220.45,554.92 220.39,554.81 192.74,485.50 137.43,346.88 82.11,208.27 26.77,69.66 -0.93,0.25 -0.96,0.02 -0.94,-0.21 -0.86,-0.43 -0.73,-0.63 -0.56,-0.78 -0.36,-0.89 -0.13,-0.95 0.10,-0.96 0.33,-0.90 0.53,-0.80 0.71,-0.65 0.84,-0.46 Z" fill="#cecece" stroke="#cecece" stroke-width="2.11" stroke-dasharray="none" stroke-dashoffset="none" stroke-linecap="round" stroke-linejoin="round" pointer-events="stroke"/><g><path d="M 224.15,540.5459807447613 L 221.86,556.38 209.29,546.4722930903841" fill="none" stroke="#cecece" stroke-width="4.23" stroke-linecap="round" stroke-linejoin="round" pointer-events="none"/></g></g></g><g id="d3420264-3e10-4ecd-0fe8-a3a2ec4a2d08_svg" class="tl-centered-g" transform="translate(1134.28, 400.67) rotate(0.00, 94.93, 278.35)"><defs><mask id="d3420264-3e10-4ecd-0fe8-a3a2ec4a2d08_clip"><rect x="-100" y="-100" width="389.86" height="756.7" fill="white"/><rect x="94.93" y="278.35" width="0" height="0" rx="4" ry="4" fill="black" opacity="1"/></mask></defs><g pointer-events="none" opacity="1" mask=""><path d="M190.73,0.30 Q143.35,138.97 119.67,208.31 T72.32,347.00 24.99,485.69 1.27,555.14 1.13,555.32 0.94,555.45 0.72,555.51 0.49,555.49 0.28,555.41 0.11,555.26 -0.01,555.06 -0.06,554.84 -0.03,554.62 0.07,554.41 0.22,554.25 0.42,554.14 0.65,554.10 0.87,554.14 1.07,554.25 1.23,554.41 1.32,554.62 1.35,554.85 1.30,555.07 1.18,555.26 1.01,555.41 0.79,555.49 0.57,555.51 0.35,555.44 0.16,555.32 0.02,555.13 -0.05,554.92 -0.05,554.69 -0.03,554.58 23.61,485.22 70.88,346.51 118.14,207.79 165.38,69.07 189.04,-0.39 189.16,-0.58 189.32,-0.73 189.51,-0.84 189.72,-0.90 189.94,-0.90 190.15,-0.86 190.35,-0.76 190.52,-0.62 190.65,-0.45 190.73,-0.25 190.77,-0.03 190.75,0.19 Z" fill="#cecece" stroke="#cecece" stroke-width="2.11" stroke-dasharray="none" stroke-dashoffset="none" stroke-linecap="round" stroke-linejoin="round" pointer-events="stroke"/><g><path d="M 12.04,546.1676327284708 L 0,556.7 -3.0990629911551375,541.0030000134786" fill="none" stroke="#cecece" stroke-width="4.23" stroke-linecap="round" stroke-linejoin="round" pointer-events="none"/></g></g></g><g id="ed8fd95a-78ff-4070-0688-5e0cec417a68_svg" class="tl-centered-g" transform="translate(1421.90, 16.00) rotate(0.00, 129.70, 52.50)"><path d="M259.55,72.54 Q259.76,82.71 259.86,89.13 T258.11,99.20 249.33,103.88 234.47,105.10 218.31,105.33 201.81,105.37 185.21,105.36 168.59,105.33 151.97,105.31 135.34,105.32 118.72,105.42 102.09,105.57 85.46,105.72 68.84,105.86 52.21,106.01 35.59,106.15 18.94,106.30 6.46,104.52 1.26,96.88 0.10,84.52 0.07,71.21 0.18,57.67 0.16,44.06 0.06,30.44 -0.03,16.78 1.80,6.18 10.58,1.36 25.40,0.10 41.50,-0.16 57.94,-0.21 74.48,-0.21 91.03,-0.20 107.60,-0.18 124.16,-0.21 140.73,-0.32 157.29,-0.48 173.85,-0.64 190.42,-0.80 206.98,-0.95 223.55,-1.11 240.14,-1.26 252.57,0.49 257.81,8.13 259.09,20.52 259.24,33.86 259.26,47.42 259.41,61.05 259.65,77.03 259.73,86.43 259.58,86.87 259.30,87.25 258.92,87.51 258.47,87.64 258.00,87.61 257.56,87.44 257.21,87.14 256.96,86.74 256.86,86.28 256.91,85.82 257.11,85.39 257.43,85.05 257.84,84.83 258.30,84.76 258.76,84.83 259.18,85.05 259.50,85.39 259.70,85.81 259.75,86.27 259.65,86.73 259.41,87.13 259.05,87.44 258.62,87.61 258.15,87.64 257.70,87.51 257.31,87.25 257.03,86.88 256.88,86.44 256.84,86.20 256.91,77.04 257.04,61.06 257.08,47.44 256.87,33.92 256.36,20.82 255.27,9.32 251.43,3.07 240.10,1.94 223.56,1.93 207.00,1.91 190.43,1.90 173.87,1.88 157.30,1.86 140.74,1.85 124.17,1.88 107.61,1.99 91.04,2.15 74.49,2.31 57.97,2.49 41.56,2.71 25.64,3.12 11.67,4.04 4.34,7.38 3.07,16.86 2.80,30.46 2.53,44.08 2.36,57.67 2.44,71.17 2.82,84.25 3.81,95.72 7.61,101.96 18.97,103.09 35.58,103.11 52.20,103.14 68.83,103.17 85.46,103.20 102.08,103.22 118.71,103.25 135.33,103.24 151.96,103.13 168.58,102.99 185.20,102.84 201.79,102.67 218.25,102.46 234.23,102.07 248.25,101.19 255.58,98.00 256.76,89.07 256.91,77.64 257.01,72.40 257.08,72.10 257.22,71.83 257.42,71.60 257.67,71.42 257.96,71.31 258.26,71.28 258.57,71.31 258.85,71.42 259.11,71.59 259.31,71.82 259.45,72.09 259.53,72.39 Z" fill="#eb2435" stroke="#eb2435" stroke-width="2" pointer-events="none"/></g><g text-align="center" text-anchor="middle" transform="translate(1421.90, 75.83) rotate(0.00, 90.90, 24.10)"><g id="d505e42d-513d-4661-3652-4e5c10e08fb1_svg" class="tl-centered-g"><path d="M91.29,-0.03 Q104.12,-0.13 112.17,-0.17 T128.68,-0.25 145.72,-0.34 162.91,-0.41 175.65,1.24 180.93,5.68 182.31,11.22 182.49,16.73 182.49,22.11 182.62,27.48 182.82,32.83 183.00,38.27 181.25,43.73 172.20,47.17 156.74,48.05 139.95,48.20 122.78,48.22 105.50,48.21 88.20,48.31 70.89,48.55 53.58,48.79 36.27,49.02 18.93,49.25 6.11,47.67 0.85,43.17 -0.41,37.45 -0.46,31.73 -0.33,26.13 -0.32,20.55 -0.39,14.97 -0.43,9.31 1.41,3.74 10.45,0.33 25.84,-0.43 42.54,-0.43 59.62,-0.30 76.80,-0.14 94.01,-0.09 114.17,-0.16 125.93,-0.16 126.31,-0.03 126.63,0.21 126.85,0.54 126.96,0.93 126.94,1.33 126.79,1.71 126.52,2.01 126.18,2.22 125.79,2.30 125.39,2.26 125.02,2.09 124.73,1.81 124.54,1.46 124.48,1.06 124.54,0.66 124.73,0.31 125.03,0.03 125.39,-0.14 125.79,-0.18 126.19,-0.09 126.53,0.12 126.79,0.42 126.94,0.80 126.96,1.20 126.85,1.59 126.62,1.92 126.30,2.16 125.92,2.29 125.72,2.32 114.16,2.22 94.00,2.04 76.80,1.99 59.62,2.09 42.56,2.22 25.98,2.48 11.48,3.04 3.92,5.12 2.63,9.53 2.35,15.02 2.05,20.59 1.86,26.15 1.91,31.65 2.24,36.87 3.15,41.47 7.07,44.82 18.96,46.09 36.25,46.11 53.56,46.14 70.87,46.16 88.18,46.18 105.48,46.08 122.75,45.83 139.90,45.55 156.57,45.15 171.15,44.46 178.73,42.37 179.94,38.12 180.08,32.85 180.25,27.49 180.30,22.15 180.12,16.87 179.67,11.86 178.66,7.45 174.69,4.13 162.86,2.75 145.71,2.57 128.67,2.40 112.16,2.22 97.70,2.05 91.16,1.95 90.93,1.89 90.72,1.78 90.54,1.62 90.41,1.42 90.32,1.20 90.29,0.96 90.32,0.73 90.41,0.50 90.55,0.31 90.73,0.15 90.94,0.04 91.17,-0.02 Z" fill="#eb2435" stroke="#eb2435" stroke-width="2" pointer-events="none"/></g><text font-size="28px" font-family="Caveat Brush" font-weight="normal" line-height="28px" letter-spacing="-0.03em" text-align="center" dominant-baseline="mathematical" alignment-baseline="mathematical" text-anchor="middle" transform="translate(42.900000000000006, 5.10)" fill="#eb2435" transform-origin="center center"><tspan y="14px" x="52">checksum
</tspan></text></g><g id="c6cafd56-a77d-4d4a-2d48-6fe21bc3e34c_svg" class="tl-centered-g" transform="translate(806.21, 312.34) rotate(0.00, 129.70, 52.50)"><path d="M259.77,73.21 Q260.07,83.41 260.22,89.85 T258.52,99.96 249.75,104.60 234.87,105.70 218.68,105.80 202.16,105.69 185.54,105.54 168.90,105.38 152.25,105.21 135.60,105.09 118.95,105.05 102.30,105.06 85.65,105.06 68.99,105.07 52.34,105.07 35.69,105.08 19.02,105.08 6.54,103.23 1.27,95.63 -0.07,83.37 -0.28,70.18 -0.37,56.78 -0.58,43.31 -0.88,29.82 -1.16,16.29 0.56,5.76 9.32,0.98 24.19,-0.23 40.35,-0.43 56.86,-0.42 73.46,-0.37 90.08,-0.31 106.71,-0.24 123.34,-0.21 139.97,-0.27 156.60,-0.37 173.23,-0.48 189.86,-0.58 206.49,-0.68 223.12,-0.78 239.77,-0.88 252.25,0.90 257.53,8.57 258.90,21.00 259.16,34.38 259.29,48.00 259.55,61.67 259.91,77.71 260.07,87.14 259.92,87.59 259.65,87.96 259.26,88.23 258.81,88.36 258.35,88.34 257.91,88.17 257.55,87.87 257.30,87.47 257.20,87.02 257.24,86.55 257.44,86.12 257.75,85.78 258.16,85.56 258.63,85.48 259.09,85.55 259.50,85.76 259.83,86.10 260.03,86.52 260.08,86.99 259.99,87.44 259.75,87.85 259.40,88.15 258.97,88.33 258.50,88.36 258.05,88.24 257.66,87.98 257.37,87.61 257.22,87.17 257.18,86.94 257.17,77.74 257.18,61.70 257.11,48.03 256.79,34.46 256.18,21.31 255.00,9.77 251.11,3.50 239.73,2.32 223.12,2.26 206.49,2.18 189.86,2.11 173.23,2.04 156.60,1.97 139.97,1.90 123.34,1.88 106.71,1.94 90.08,2.04 73.46,2.15 56.87,2.27 40.40,2.44 24.42,2.80 10.41,3.67 3.08,6.95 1.94,16.34 1.87,29.80 1.79,43.28 1.82,56.75 2.09,70.11 2.65,83.06 3.80,94.42 7.68,100.64 19.08,101.88 35.71,102.04 52.36,102.21 69.01,102.37 85.66,102.54 102.31,102.71 118.96,102.88 135.61,103.00 152.26,103.04 168.91,103.03 185.55,103.02 202.16,103.00 218.65,102.93 234.65,102.67 248.69,101.91 256.01,98.76 257.12,89.82 257.18,78.34 257.23,73.08 257.30,72.78 257.44,72.51 257.64,72.28 257.89,72.10 258.18,71.99 258.48,71.95 258.78,71.98 259.07,72.09 259.33,72.26 259.53,72.49 259.68,72.76 259.75,73.05 Z" fill="#eb2435" stroke="#eb2435" stroke-width="2" pointer-events="none"/></g><g text-align="center" text-anchor="middle" transform="translate(804.13, 369.05) rotate(0.00, 90.90, 24.10)"><g id="2246eba1-6c68-46d3-2448-e718a002da6a_svg" class="tl-centered-g"><path d="M90.57,47.73 Q77.73,47.87 69.67,47.94 T53.13,48.08 36.07,48.22 18.85,48.35 6.09,46.71 0.85,42.23 -0.37,36.58 -0.38,30.95 -0.22,25.44 -0.18,19.95 -0.22,14.46 -0.23,8.90 1.63,3.40 10.63,-0.00 25.89,-0.78 42.45,-0.80 59.39,-0.69 76.42,-0.54 93.49,-0.51 110.56,-0.61 127.63,-0.71 144.70,-0.82 161.79,-0.91 174.44,0.73 179.74,5.18 181.17,10.77 181.42,16.35 181.50,21.80 181.70,27.23 181.98,32.66 182.23,38.17 180.52,43.67 171.50,47.10 156.11,47.90 139.39,47.96 122.29,47.89 105.08,47.78 87.85,47.79 67.66,47.94 55.89,47.98 55.51,47.85 55.19,47.61 54.96,47.27 54.85,46.88 54.87,46.48 55.02,46.11 55.28,45.80 55.63,45.59 56.02,45.51 56.42,45.55 56.79,45.72 57.08,46.00 57.27,46.35 57.33,46.75 57.27,47.15 57.08,47.50 56.79,47.78 56.42,47.95 56.02,47.99 55.63,47.90 55.28,47.70 55.02,47.39 54.87,47.02 54.85,46.62 54.96,46.23 55.19,45.89 55.51,45.65 55.89,45.52 56.09,45.49 67.66,45.55 87.85,45.66 105.08,45.65 122.28,45.50 139.36,45.31 155.96,45.00 170.47,44.39 178.01,42.33 179.17,38.05 179.24,32.70 179.33,27.28 179.31,21.87 179.06,16.52 178.54,11.44 177.48,6.96 173.50,3.62 161.74,2.25 144.69,2.09 127.62,1.94 110.55,1.78 93.48,1.62 76.42,1.59 59.39,1.70 42.48,1.85 26.04,2.13 11.66,2.71 4.14,4.78 2.84,9.13 2.52,14.54 2.19,20.01 1.97,25.47 1.98,30.88 2.28,36.01 3.16,40.53 7.06,43.86 18.89,45.19 36.07,45.31 53.13,45.43 69.67,45.55 84.15,45.67 90.69,45.74 90.92,45.80 91.13,45.91 91.31,46.07 91.45,46.27 91.53,46.49 91.56,46.73 91.53,46.97 91.45,47.19 91.31,47.39 91.13,47.55 90.92,47.66 90.69,47.71 Z" fill="#eb2435" stroke="#eb2435" stroke-width="2" pointer-events="none"/></g><text font-size="28px" font-family="Caveat Brush" font-weight="normal" line-height="28px" letter-spacing="-0.03em" text-align="center" dominant-baseline="mathematical" alignment-baseline="mathematical" text-anchor="middle" transform="translate(42.900000000000006, 5.10)" fill="#eb2435" transform-origin="center center"><tspan y="14px" x="52">checksum
</tspan></text></g><g id="3977c9db-2d28-43f6-1e1b-6a19de37d59b_svg" class="tl-centered-g" transform="translate(360.76, 982.25) rotate(0.00, 129.70, 52.50)"><path d="M259.49,73.18 Q259.61,83.34 259.66,89.74 T257.83,99.79 249.04,104.41 234.18,105.52 218.05,105.62 201.57,105.53 184.99,105.40 168.40,105.24 151.80,105.09 135.20,104.98 118.59,104.95 101.99,104.97 85.39,104.99 68.78,105.00 52.18,105.02 35.58,105.04 18.95,105.05 6.49,103.20 1.31,95.62 0.16,83.44 0.14,70.34 0.26,57.02 0.25,43.64 0.17,30.24 0.10,16.81 1.94,6.34 10.72,1.58 25.57,0.36 41.70,0.14 58.17,0.13 74.74,0.16 91.32,0.21 107.91,0.26 124.51,0.27 141.10,0.19 157.69,0.07 174.29,-0.05 190.88,-0.17 207.48,-0.29 224.07,-0.41 240.69,-0.53 253.14,1.26 258.34,8.90 259.51,21.27 259.54,34.57 259.44,48.11 259.47,61.71 259.56,77.67 259.55,87.05 259.40,87.49 259.12,87.86 258.73,88.12 258.28,88.24 257.81,88.21 257.38,88.04 257.02,87.73 256.78,87.33 256.69,86.87 256.74,86.41 256.94,85.98 257.26,85.65 257.68,85.43 258.14,85.36 258.60,85.44 259.01,85.66 259.33,86.00 259.52,86.42 259.57,86.89 259.47,87.35 259.22,87.75 258.87,88.05 258.43,88.22 257.96,88.24 257.51,88.11 257.13,87.85 256.85,87.47 256.70,87.03 256.66,86.79 256.81,77.65 257.09,61.70 257.25,48.11 257.17,34.62 256.78,21.54 255.79,10.06 252.00,3.82 240.65,2.68 224.08,2.63 207.48,2.58 190.89,2.52 174.29,2.47 157.70,2.42 141.11,2.37 124.51,2.36 107.92,2.44 91.33,2.56 74.74,2.68 58.19,2.82 41.76,3.01 25.81,3.38 11.82,4.27 4.47,7.56 3.20,16.89 2.91,30.26 2.63,43.66 2.45,57.03 2.51,70.30 2.88,83.17 3.86,94.46 7.65,100.63 19.01,101.85 35.59,102.00 52.19,102.15 68.79,102.31 85.40,102.47 102.00,102.62 118.60,102.78 135.21,102.89 151.81,102.92 168.41,102.90 185.00,102.88 201.57,102.84 218.01,102.76 233.97,102.49 247.97,101.72 255.31,98.57 256.56,89.65 256.81,78.24 256.96,73.02 257.03,72.72 257.17,72.45 257.38,72.22 257.63,72.05 257.92,71.94 258.22,71.91 258.53,71.95 258.81,72.06 259.06,72.23 259.26,72.46 259.40,72.73 259.48,73.03 Z" fill="#eb2435" stroke="#eb2435" stroke-width="2" pointer-events="none"/></g><g text-align="center" text-anchor="middle" transform="translate(360.76, 1039.25) rotate(0.00, 90.90, 24.10)"><g id="eab6adb7-db2d-4f15-2913-686c7808a584_svg" class="tl-centered-g"><path d="M182.32,31.99 Q182.54,35.98 182.63,38.58 T180.89,43.82 171.91,47.21 156.59,48.08 139.97,48.23 122.96,48.25 105.85,48.23 88.71,48.34 71.57,48.58 54.42,48.82 37.28,49.06 20.11,49.29 7.40,47.73 2.12,43.28 0.74,37.66 0.57,32.06 0.57,26.58 0.44,21.12 0.23,15.66 0.06,10.12 1.81,4.61 10.79,1.17 26.09,0.34 42.70,0.25 59.68,0.29 76.77,0.37 93.88,0.32 111.00,0.15 128.12,-0.02 145.24,-0.19 162.38,-0.36 175.07,1.24 180.35,5.65 181.76,11.19 181.97,16.71 182.01,22.10 182.17,27.47 182.42,33.75 182.52,37.58 182.37,38.03 182.09,38.40 181.71,38.67 181.26,38.80 180.79,38.78 180.35,38.61 180.00,38.31 179.75,37.91 179.65,37.46 179.69,36.99 179.88,36.57 180.20,36.22 180.61,36.00 181.07,35.92 181.54,35.99 181.95,36.21 182.28,36.54 182.48,36.97 182.53,37.43 182.44,37.89 182.20,38.29 181.84,38.60 181.41,38.77 180.95,38.80 180.49,38.68 180.10,38.42 179.82,38.05 179.66,37.61 179.62,37.38 179.68,33.78 179.80,27.50 179.82,22.15 179.61,16.87 179.12,11.85 178.09,7.43 174.13,4.13 162.34,2.80 145.24,2.72 128.12,2.63 111.00,2.54 93.89,2.45 76.77,2.50 59.69,2.68 42.73,2.90 26.25,3.24 11.83,3.88 4.32,5.96 3.12,10.28 2.98,15.65 2.81,21.10 2.75,26.54 2.93,31.92 3.38,37.03 4.39,41.52 8.34,44.85 20.13,46.13 37.26,46.15 54.40,46.17 71.55,46.19 88.69,46.21 105.83,46.10 122.94,45.86 139.92,45.58 156.43,45.17 170.87,44.50 178.38,42.46 179.57,38.43 179.68,34.01 179.78,31.86 179.85,31.56 179.99,31.29 180.19,31.06 180.44,30.88 180.72,30.77 181.02,30.73 181.33,30.77 181.62,30.87 181.87,31.04 182.07,31.27 182.22,31.54 182.30,31.84 Z" fill="#eb2435" stroke="#eb2435" stroke-width="2" pointer-events="none"/></g><text font-size="28px" font-family="Caveat Brush" font-weight="normal" line-height="28px" letter-spacing="-0.03em" text-align="center" dominant-baseline="mathematical" alignment-baseline="mathematical" text-anchor="middle" transform="translate(42.900000000000006, 5.10)" fill="#eb2435" transform-origin="center center"><tspan y="14px" x="52">checksum
</tspan></text></g><g id="ee110ca6-4ef1-462a-2032-fb8bcfa9a7ce_svg" class="tl-centered-g" transform="translate(533.65, 417.25) rotate(0.00, 173.09, 274.50)"><defs><mask id="ee110ca6-4ef1-462a-2032-fb8bcfa9a7ce_clip"><rect x="-100" y="-100" width="546.18" height="749" fill="white"/><rect x="173.09" y="274.5" width="0" height="0" rx="4" ry="4" fill="black" opacity="1"/></mask></defs><g pointer-events="none" opacity="1" mask=""><path d="M347.03,0.54 Q260.70,137.33 217.54,205.73 T131.23,342.54 44.92,479.35 1.68,547.86 1.48,548.02 1.23,548.12 0.96,548.13 0.70,548.05 0.49,547.89 0.33,547.68 0.25,547.42 0.26,547.16 0.35,546.91 0.51,546.70 0.74,546.55 0.99,546.49 1.26,546.51 1.51,546.61 1.71,546.79 1.84,547.02 1.89,547.28 1.86,547.55 1.74,547.79 1.55,547.98 1.31,548.10 1.05,548.13 0.79,548.08 0.55,547.95 0.37,547.76 0.27,547.51 0.24,547.25 0.31,546.99 0.36,546.86 43.49,478.44 129.74,341.60 215.99,204.75 302.22,67.89 345.41,-0.63 345.58,-0.80 345.79,-0.92 346.02,-0.98 346.26,-0.99 346.49,-0.95 346.71,-0.84 346.90,-0.69 347.04,-0.50 347.14,-0.28 347.18,-0.04 347.16,0.20 347.08,0.43 Z" fill="#eb2435" stroke="#eb2435" stroke-width="2.11" stroke-dasharray="none" stroke-dashoffset="none" stroke-linecap="round" stroke-linejoin="round" pointer-events="stroke"/><g><path d="M 14.15,541.5462341285453 L 0,549 0.62,533.0121615244237" fill="none" stroke="#eb2435" stroke-width="4.23" stroke-linecap="round" stroke-linejoin="round" pointer-events="none"/></g></g></g><g id="b6799268-cbc9-4104-0afe-1b3462020809_svg" class="tl-centered-g" transform="translate(1486.79, 121.00) rotate(0.00, 24.35, 79.33)"><defs><mask id="b6799268-cbc9-4104-0afe-1b3462020809_clip"><rect x="-100" y="-100" width="248.7" height="358.66" fill="white"/><rect x="24.35" y="79.33" width="0" height="0" rx="4" ry="4" fill="black" opacity="1"/></mask></defs><g pointer-events="none" opacity="1" mask=""><path d="M49.58,0.27 Q37.48,39.44 31.43,59.02 T19.36,98.20 7.30,137.38 1.22,157.07 1.09,157.26 0.90,157.39 0.68,157.46 0.45,157.45 0.24,157.37 0.06,157.23 -0.06,157.04 -0.12,156.82 -0.10,156.59 -0.01,156.38 0.15,156.21 0.34,156.10 0.57,156.05 0.79,156.08 1.00,156.19 1.16,156.35 1.26,156.55 1.29,156.78 1.25,157.00 1.14,157.20 0.97,157.35 0.76,157.44 0.53,157.46 0.31,157.41 0.12,157.28 -0.03,157.10 -0.11,156.89 -0.11,156.66 -0.10,156.55 5.90,136.95 17.90,97.75 29.88,58.55 41.85,19.34 47.87,-0.37 47.98,-0.56 48.14,-0.71 48.32,-0.83 48.53,-0.89 48.75,-0.91 48.97,-0.87 49.17,-0.78 49.34,-0.65 49.48,-0.47 49.57,-0.27 49.61,-0.06 49.59,0.16 Z" fill="#b7bdc3" stroke="#b7bdc3" stroke-width="2.11" stroke-dasharray="none" stroke-dashoffset="none" stroke-linecap="round" stroke-linejoin="round" pointer-events="stroke"/><g><path d="M 11.71,147.7708235195961 L 0,158.67 -3.5821738055717276,143.0761540719848" fill="none" stroke="#b7bdc3" stroke-width="4.23" stroke-linecap="round" stroke-linejoin="round" pointer-events="none"/></g></g></g><g id="1a7540de-8854-4502-066c-b797383f9867_svg" class="tl-centered-g" transform="translate(869.37, 417.34) rotate(0.00, 30.36, 273.66)"><defs><mask id="1a7540de-8854-4502-066c-b797383f9867_clip"><rect x="-100" y="-100" width="260.72" height="747.32" fill="white"/><rect x="30.36" y="273.66" width="0" height="0" rx="4" ry="4" fill="black" opacity="1"/></mask></defs><g pointer-events="none" opacity="1" mask=""><path d="M61.60,0.10 Q46.40,136.42 38.81,204.59 T23.63,340.91 8.47,477.24 0.86,545.51 0.77,545.71 0.62,545.86 0.43,545.96 0.22,546.00 0.01,545.96 -0.18,545.86 -0.33,545.70 -0.42,545.51 -0.44,545.29 -0.40,545.08 -0.29,544.90 -0.12,544.76 0.08,544.68 0.29,544.67 0.50,544.73 0.68,544.85 0.81,545.02 0.88,545.23 0.88,545.44 0.81,545.64 0.68,545.82 0.50,545.94 0.29,545.99 0.08,545.98 -0.12,545.90 -0.29,545.76 -0.40,545.58 -0.44,545.37 -0.45,545.26 7.10,477.09 22.19,340.75 37.26,204.41 52.32,68.07 59.86,-0.20 59.94,-0.40 60.06,-0.58 60.21,-0.72 60.40,-0.82 60.60,-0.87 60.82,-0.87 61.02,-0.83 61.21,-0.73 61.37,-0.59 61.49,-0.42 61.57,-0.22 61.60,-0.01 Z" fill="#b7bdc3" stroke="#b7bdc3" stroke-width="2.11" stroke-dasharray="none" stroke-dashoffset="none" stroke-linecap="round" stroke-linejoin="round" pointer-events="stroke"/><g><path d="M 9.47,534.4301982583294 L 0,547.32 -6.4233543492975524,532.6659726046605" fill="none" stroke="#b7bdc3" stroke-width="4.23" stroke-linecap="round" stroke-linejoin="round" pointer-events="none"/></g></g></g><g id="29db08a1-446e-42bc-27af-2bd2de60f2a6_svg" class="tl-centered-g" transform="translate(1081.61, 124.03) rotate(0.00, 189.35, 86.95)"><defs><mask id="29db08a1-446e-42bc-27af-2bd2de60f2a6_clip"><rect x="-100" y="-100" width="578.71" height="373.9" fill="white"/><rect x="189.35" y="86.95" width="0" height="0" rx="4" ry="4" fill="black" opacity="1"/></mask></defs><g pointer-events="none" opacity="1" mask=""><path d="M379.06,0.77 Q284.80,43.96 237.68,65.56 T143.43,108.78 49.19,152.01 1.98,173.65 1.78,173.67 1.59,173.63 1.42,173.53 1.29,173.38 1.22,173.19 1.21,173.00 1.27,172.81 1.38,172.65 1.53,172.53 1.72,172.46 1.92,172.46 2.10,172.53 2.26,172.65 2.37,172.81 2.42,173.00 2.41,173.20 2.34,173.38 2.21,173.53 2.04,173.63 1.85,173.67 1.65,173.65 1.47,173.57 1.33,173.43 1.24,173.26 1.21,173.06 1.24,172.87 1.33,172.70 1.48,172.56 1.56,172.50 48.66,150.86 142.87,107.55 237.07,64.24 331.26,20.90 378.45,-0.80 378.65,-0.84 378.86,-0.83 379.05,-0.77 379.22,-0.67 379.37,-0.52 379.47,-0.35 379.53,-0.16 379.55,0.04 379.51,0.24 379.43,0.43 379.31,0.59 379.15,0.72 Z" fill="#eb2435" stroke="#eb2435" stroke-width="2.11" stroke-dasharray="none" stroke-dashoffset="none" stroke-linecap="round" stroke-linejoin="round" pointer-events="stroke"/><g><path d="M 15.93,175.38790211737333 L 0,173.9 9.25,160.84758884008582" fill="none" stroke="#eb2435" stroke-width="4.23" stroke-linecap="round" stroke-linejoin="round" pointer-events="none"/></g></g></g><g id="a98cbcdf-f1c6-4b69-1a74-3036e6a01f43_svg" class="tl-centered-g" transform="translate(275.40, 1033.07) rotate(0.00, 34.68, 0.50)"><defs><mask id="a98cbcdf-f1c6-4b69-1a74-3036e6a01f43_clip"><rect x="-100" y="-100" width="269.36" height="201" fill="white"/><rect x="34.68" y="0.10" width="0" height="0" rx="2.16" ry="2.16" fill="black" opacity="1"/></mask></defs><g pointer-events="none" opacity="1" mask=""><path d="M0.00,-0.94 Q16.84,-0.82 25.26,-0.77 T42.10,-0.67 58.94,-0.58 67.48,-0.52 67.71,-0.45 67.90,-0.30 68.03,-0.10 68.09,0.13 68.08,0.37 67.99,0.59 67.84,0.77 67.63,0.89 67.40,0.94 67.16,0.92 66.94,0.81 66.77,0.65 66.66,0.44 66.62,0.20 66.66,-0.03 66.77,-0.25 66.95,-0.41 67.16,-0.51 67.40,-0.53 67.64,-0.48 67.84,-0.36 67.99,-0.17 68.08,0.05 68.09,0.29 68.03,0.52 67.89,0.71 67.70,0.86 67.48,0.93 67.36,0.95 58.94,0.94 42.10,0.92 25.26,0.92 8.42,0.93 -0.12,0.93 -0.33,0.87 -0.53,0.77 -0.70,0.62 -0.83,0.43 -0.91,0.22 -0.93,-0.00 -0.91,-0.23 -0.83,-0.44 -0.70,-0.62 -0.53,-0.77 -0.33,-0.87 -0.11,-0.93 Z" fill="#415fda" stroke="#415fda" stroke-width="2.11" stroke-dasharray="none" stroke-dashoffset="none" stroke-linecap="round" stroke-linejoin="round" pointer-events="stroke"/><g><path d="M 55.52,-7.831915928267448 L 69.36,0.21 55.47,8.168010737386815" fill="none" stroke="#415fda" stroke-width="4.23" stroke-linecap="round" stroke-linejoin="round" pointer-events="none"/></g></g></g><g id="998b3f5d-a424-40a2-3a2f-07f36f677d67_svg" class="tl-centered-g" transform="translate(662.38, 355.31) rotate(0.00, 62.88, 1.96)"><defs><mask id="998b3f5d-a424-40a2-3a2f-07f36f677d67_clip"><rect x="-100" y="-100" width="325.75" height="203.91" fill="white"/><rect x="62.87" y="1.95" width="0" height="0" rx="3.93" ry="3.93" fill="black" opacity="1"/></mask></defs><g pointer-events="none" opacity="1" mask=""><path d="M-0.03,3.02 Q30.91,2.14 46.38,1.69 T77.32,0.78 108.26,-0.15 123.84,-0.60 124.04,-0.54 124.22,-0.41 124.35,-0.24 124.41,-0.03 124.41,0.19 124.33,0.39 124.20,0.56 124.02,0.67 123.81,0.73 123.59,0.71 123.39,0.62 123.23,0.48 123.13,0.29 123.09,0.08 123.11,-0.13 123.21,-0.32 123.36,-0.48 123.55,-0.57 123.77,-0.60 123.98,-0.56 124.17,-0.46 124.31,-0.30 124.40,-0.10 124.42,0.11 124.36,0.32 124.25,0.51 124.08,0.64 123.88,0.72 123.77,0.74 108.30,1.23 77.37,2.23 46.43,3.25 15.50,4.28 -0.08,4.79 -0.29,4.74 -0.48,4.65 -0.64,4.51 -0.77,4.34 -0.85,4.15 -0.88,3.94 -0.86,3.73 -0.79,3.53 -0.68,3.35 -0.52,3.20 -0.34,3.10 -0.13,3.04 Z" fill="#415fda" stroke="#415fda" stroke-width="2.11" stroke-dasharray="none" stroke-dashoffset="none" stroke-linecap="round" stroke-linejoin="round" pointer-events="stroke"/><g><path d="M 111.65,-7.565500379090451 L 125.75,0 112.14,8.42677080885953" fill="none" stroke="#415fda" stroke-width="4.23" stroke-linecap="round" stroke-linejoin="round" pointer-events="none"/></g></g></g><g id="62948560-424b-4153-3be4-b70c58a10fca_svg" class="tl-centered-g" transform="translate(1099.07, 70.41) rotate(0.00, 153.41, 1.16)"><defs><mask id="62948560-424b-4153-3be4-b70c58a10fca_clip"><rect x="-100" y="-100" width="506.83" height="202.32" fill="white"/><rect x="153.41" y="1.16" width="0" height="0" rx="4" ry="4" fill="black" opacity="1"/></mask></defs><g pointer-events="none" opacity="1" mask=""><path d="M-0.01,1.36 Q76.20,0.86 114.30,0.59 T190.51,0.06 266.72,-0.48 304.95,-0.74 305.18,-0.66 305.38,-0.51 305.52,-0.31 305.59,-0.07 305.57,0.17 305.48,0.40 305.33,0.59 305.12,0.72 304.88,0.77 304.63,0.75 304.41,0.65 304.23,0.48 304.11,0.26 304.07,0.02 304.11,-0.22 304.22,-0.44 304.40,-0.61 304.62,-0.72 304.87,-0.74 305.11,-0.69 305.32,-0.57 305.48,-0.38 305.57,-0.15 305.59,0.09 305.52,0.33 305.39,0.53 305.19,0.68 304.96,0.76 304.84,0.79 266.73,1.09 190.52,1.70 114.32,2.32 38.11,2.95 -0.11,3.26 -0.33,3.21 -0.53,3.10 -0.71,2.95 -0.84,2.77 -0.92,2.55 -0.95,2.33 -0.92,2.10 -0.84,1.89 -0.71,1.70 -0.54,1.54 -0.34,1.44 -0.12,1.38 Z" fill="#415fda" stroke="#415fda" stroke-width="2.11" stroke-dasharray="none" stroke-dashoffset="none" stroke-linecap="round" stroke-linejoin="round" pointer-events="stroke"/><g><path d="M 292.91,-7.895003393015864 L 306.83,0 293.03,8.104539253812522" fill="none" stroke="#415fda" stroke-width="4.23" stroke-linecap="round" stroke-linejoin="round" pointer-events="none"/></g></g></g></svg>